<?xml version="1.0" encoding="UTF-8"?>
<svg xmlns="http://www.w3.org/2000/svg" id="outline" viewBox="0 0 512 512" width="512" height="512"><path d="M492.24,233.216,432,195.566V157.585c.124,0,.249.012.373.012a23.686,23.686,0,0,0,6.285-46.506L186.328,41a27.08,27.08,0,1,0-13.816,52.363L192,98.234V160H168.026A24.052,24.052,0,0,0,144,184.025V192h-1.42a70.605,70.605,0,0,0-67.627,50.316L65.094,275.18l-4.852,3.638A70.945,70.945,0,0,0,32,335.3v18.074A24,24,0,0,0,40,400H72.805a40,40,0,0,0,78.39,0H256v48h16V400h56.805a40,40,0,0,0,78.39,0H440a24,24,0,0,0,8-46.624V248h32V448h16V240h-.021A7.982,7.982,0,0,0,492.24,233.216ZM176.393,77.84A11.085,11.085,0,0,1,179.051,56a11.209,11.209,0,0,1,3,.411l252.33,70.092a7.68,7.68,0,0,1-3.918,14.85L176.393,77.841ZM416,154.234V192H208V102.234ZM336,248h32v24H336Zm-8,40h48a8,8,0,0,0,8-8V248h16V384H304V248h16v32A8,8,0,0,0,328,288Zm-40,64H272V248h16Zm-32,0H200V209.434l56,35ZM160,184.025A8.036,8.036,0,0,1,168.026,176H192v16H160ZM32,376a8.009,8.009,0,0,1,8-8H80.022a39.841,39.841,0,0,0-7.217,16H40A8.009,8.009,0,0,1,32,376Zm80,40a24,24,0,1,1,24-24A24.028,24.028,0,0,1,112,416Zm0-64H48V335.3a54.866,54.866,0,0,1,21.842-43.684L76.8,286.4a8,8,0,0,0,2.863-4.1l10.615-35.385A54.269,54.269,0,0,1,142.58,208H184V384H151.2A40.068,40.068,0,0,0,112,352Zm88,32V368h56v16Zm72-16h16v16H272Zm96,48a24.039,24.039,0,0,1-22.624-16h45.248A24.039,24.039,0,0,1,368,416Zm72-32H416V368h24a8,8,0,0,1,0,16Zm-8-32H416V248h16ZM266.294,232l-38.4-24h193.81l38.4,24Z"/><path d="M232,176h72a8,8,0,0,0,8-8,40.045,40.045,0,0,0-40-40h-8a40.045,40.045,0,0,0-40,40A8,8,0,0,0,232,176Zm32-32h8a24.042,24.042,0,0,1,22.629,16H241.371A24.042,24.042,0,0,1,264,144Z"/><path d="M168,288V232a8,8,0,0,0-8-8H143.221a38.949,38.949,0,0,0-37.293,28.13L96.308,285.8A8,8,0,0,0,104,296h56A8,8,0,0,0,168,288Zm-16-8H114.606l6.707-23.475A22.882,22.882,0,0,1,143.221,240H152Z"/><rect x="320" y="312" width="24" height="16"/><rect x="144" y="312" width="24" height="16"/></svg>
